<svg width="18" height="19" viewBox="0 0 18 19" fill="none" xmlns="http://www.w3.org/2000/svg">
<path fill-rule="evenodd" clip-rule="evenodd" d="M17.5425 7.86501H9.15751V11.3375H13.9875C13.5375 13.55 11.655 14.8175 9.15751 14.8175C6.22074 14.8175 3.84001 12.4368 3.84001 9.50001C3.84001 6.56323 6.22074 4.18251 9.15751 4.18251C10.366 4.18421 11.5368 4.60275 12.4725 5.36751L15.09 2.75001C12.0853 0.100161 7.69091 -0.244622 4.30974 1.9042C0.928582 4.05302 -0.625178 8.17804 0.498124 12.0235C1.62143 15.869 5.15132 18.5091 9.15751 18.5C13.6575 18.5 17.745 15.23 17.745 9.50001C17.7406 8.94904 17.6726 8.40041 17.5425 7.86501Z" fill="black"/>
</svg>
